<svg class="fig-svg" viewBox="0 0 460 300" xmlns="http://www.w3.org/2000/svg" role="img"><line x1="52" y1="258.0" x2="442" y2="258.0" stroke="#e6e1d4" stroke-width="1"/><line x1="52" y1="223.7" x2="442" y2="223.7" stroke="#e6e1d4" stroke-width="1"/><line x1="52" y1="189.4" x2="442" y2="189.4" stroke="#e6e1d4" stroke-width="1"/><line x1="52" y1="155.1" x2="442" y2="155.1" stroke="#e6e1d4" stroke-width="1"/><line x1="52" y1="120.9" x2="442" y2="120.9" stroke="#e6e1d4" stroke-width="1"/><line x1="52" y1="86.6" x2="442" y2="86.6" stroke="#e6e1d4" stroke-width="1"/><line x1="52" y1="52.3" x2="442" y2="52.3" stroke="#e6e1d4" stroke-width="1"/><line x1="52" y1="18.0" x2="442" y2="18.0" stroke="#e6e1d4" stroke-width="1"/><line x1="52" y1="18" x2="52" y2="258" stroke="#9a9482" stroke-width="1.4"/><line x1="52" y1="258" x2="442" y2="258" stroke="#9a9482" stroke-width="1.4"/><text x="44" y="262.0" text-anchor="end" font-size="11" fill="#5c6356">0</text><text x="44" y="227.7" text-anchor="end" font-size="11" fill="#5c6356">100</text><text x="44" y="193.4" text-anchor="end" font-size="11" fill="#5c6356">200</text><text x="44" y="159.1" text-anchor="end" font-size="11" fill="#5c6356">300</text><text x="44" y="124.9" text-anchor="end" font-size="11" fill="#5c6356">400</text><text x="44" y="90.6" text-anchor="end" font-size="11" fill="#5c6356">500</text><text x="44" y="56.3" text-anchor="end" font-size="11" fill="#5c6356">600</text><text x="44" y="22.0" text-anchor="end" font-size="11" fill="#5c6356">700</text><text x="52.0" y="276" text-anchor="middle" font-size="11" fill="#5c6356">0</text><text x="100.8" y="276" text-anchor="middle" font-size="11" fill="#5c6356">1</text><text x="149.5" y="276" text-anchor="middle" font-size="11" fill="#5c6356">2</text><text x="198.3" y="276" text-anchor="middle" font-size="11" fill="#5c6356">3</text><text x="247.0" y="276" text-anchor="middle" font-size="11" fill="#5c6356">4</text><text x="295.8" y="276" text-anchor="middle" font-size="11" fill="#5c6356">5</text><text x="344.5" y="276" text-anchor="middle" font-size="11" fill="#5c6356">6</text><text x="393.3" y="276" text-anchor="middle" font-size="11" fill="#5c6356">7</text><text x="442.0" y="276" text-anchor="middle" font-size="11" fill="#5c6356">8</text><path d="M52.0,223.7 L100.8,155.1 L149.5,103.7 L198.3,69.4 L247.0,52.3 L295.8,79.7 L344.5,120.9 L393.3,168.9 L442.0,206.6" fill="none" stroke="#0f7256" stroke-width="2.4" stroke-linejoin="round"/><circle cx="52.0" cy="223.7" r="3.4" fill="#0a4f3c"/><circle cx="100.8" cy="155.1" r="3.4" fill="#0a4f3c"/><circle cx="149.5" cy="103.7" r="3.4" fill="#0a4f3c"/><circle cx="198.3" cy="69.4" r="3.4" fill="#0a4f3c"/><circle cx="247.0" cy="52.3" r="3.4" fill="#0a4f3c"/><circle cx="295.8" cy="79.7" r="3.4" fill="#0a4f3c"/><circle cx="344.5" cy="120.9" r="3.4" fill="#0a4f3c"/><circle cx="393.3" cy="168.9" r="3.4" fill="#0a4f3c"/><circle cx="442.0" cy="206.6" r="3.4" fill="#0a4f3c"/><text x="247" y="296" text-anchor="middle" font-size="12" fill="#21271f" font-weight="600">Month</text><text x="14" y="138" text-anchor="middle" font-size="12" fill="#21271f" font-weight="600" transform="rotate(-90 14 138)">Savings balance ($)</text></svg>